# xmcd
#
# Track frame offsets:
#	150
#	8087
#	19327
#	29582
#	38755
#	47472
#	58170
#	66315
#	76840
#	88307
#	100137
#	108992
#
# Disc length: 1658 seconds
#
# Revision: 20
# Processed by: cddbd v1.5.2PL0 Copyright (c) Steve Scherf et al.
# Submitted via: EZCDAudioConverter 6.0.5.1
#
DISCID=9606780c
DTITLE=Roger Miller - Greatest Hits
DYEAR=1996
DGENRE=Country
TTITLE0=Dang Me
TTITLE1=King Of The Road
TTITLE2=Engine, Engine #9
TTITLE3=Chug A Lug
TTITLE4=England Swings
TTITLE5=When Two Worlds Collide
TTITLE6=Do-Wacka-Do
TTITLE7=Kansas City Star
TTITLE8=Husbands And Wives
TTITLE9=Walkin' In The Sunshine
TTITLE10=You Can't Rollerskate In A Buffalo Herd
TTITLE11=Me And Bobbie McGee
EXTD=
EXTT0=
EXTT1=
EXTT2=
EXTT3=
EXTT4=
EXTT5=
EXTT6=
EXTT7=
EXTT8=
EXTT9=
EXTT10=
EXTT11=
PLAYORDER=
